<svg width="20" height="18" viewBox="0 0 20 18" fill="none" xmlns="http://www.w3.org/2000/svg">
<path d="M9.71151 17.4C9.58291 17.3996 9.45806 17.3566 9.35646 17.2777C6.12024 14.7633 3.89097 12.598 2.33107 10.4619C0.340443 7.73204 -0.11356 5.21175 0.980702 2.97084C1.76065 1.37019 4.00156 0.0605697 6.62081 0.82306C7.86963 1.18378 8.9592 1.95736 9.71151 3.0174C10.4638 1.95736 11.5534 1.18378 12.8022 0.82306C15.4156 0.0722108 17.6624 1.37019 18.4423 2.97084C19.5366 5.21175 19.0826 7.73204 17.092 10.4619C15.5321 12.598 13.3028 14.7633 10.0666 17.2777C9.96497 17.3566 9.84012 17.3996 9.71151 17.4ZM5.13075 1.77181C4.50752 1.74755 3.88944 1.89349 3.34288 2.19394C2.79631 2.4944 2.34189 2.93803 2.0284 3.47723C1.12622 5.32816 1.53365 7.38863 3.274 9.76923C5.12351 12.1548 7.28925 14.2775 9.71151 16.0787C12.1334 14.2793 14.2991 12.1586 16.149 9.77505C17.8952 7.38863 18.2968 5.32816 17.3946 3.48305C16.8126 2.31894 15.0664 1.39347 13.1224 1.9406C12.499 2.12482 11.9211 2.43751 11.4259 2.85855C10.9307 3.27958 10.5291 3.79963 10.247 4.38523C10.2032 4.49199 10.1286 4.58329 10.0327 4.64755C9.93682 4.71181 9.82402 4.74612 9.7086 4.74612C9.59319 4.74612 9.48039 4.71181 9.38452 4.64755C9.28866 4.58329 9.21406 4.49199 9.1702 4.38523C8.89022 3.79817 8.48933 3.2769 7.99381 2.8556C7.49828 2.43431 6.91932 2.1225 6.29486 1.9406C5.91651 1.83071 5.52473 1.77391 5.13075 1.77181Z" fill="#2F80ED"/>
</svg>
