<svg width="20" height="20" viewBox="0 0 20 20" fill="none" xmlns="http://www.w3.org/2000/svg">
<rect x="0.933358" y="1.13333" width="18.1333" height="18.1333" stroke="#2F80ED" stroke-width="1.06667"/>
<line x1="3.67616" y1="0.600004" x2="3.67615" y2="19.8" stroke="#2F80ED" stroke-width="1.06667"/>
<path d="M10.7241 9.93481C10.2071 9.93481 9.76667 9.75279 9.40263 9.38876C9.0386 9.02472 8.85658 8.58424 8.85658 8.06731C8.85658 7.55038 9.0386 7.1099 9.40263 6.74586C9.76667 6.38183 10.2071 6.19981 10.7241 6.19981C11.241 6.19981 11.6815 6.38183 12.0455 6.74586C12.4096 7.1099 12.5916 7.55038 12.5916 8.06731C12.5916 8.58424 12.4096 9.02472 12.0455 9.38876C11.6815 9.75279 11.241 9.93481 10.7241 9.93481ZM10.7241 10.874C11.1828 10.874 11.6888 10.9395 12.2421 11.0706C12.7954 11.2017 13.3014 11.4164 13.7601 11.7149C14.2188 12.0134 14.4482 12.352 14.4482 12.7306V13.6698H7V12.7306C7 12.352 7.22934 12.0134 7.68803 11.7149C8.14671 11.4164 8.65272 11.2017 9.20605 11.0706C9.75939 10.9395 10.2654 10.874 10.7241 10.874Z" stroke="#2F80ED" stroke-width="0.96"/>
</svg>
