<svg width="20" height="20" viewBox="0 0 20 20" fill="none" xmlns="http://www.w3.org/2000/svg">
<path d="M4.56129 9.0129H5.91576L8.12258 4.26451V1C8.12258 1 8.45467 1 9.0129 1C10.2911 1 11.2426 2.81537 11.2429 4.45534C11.2429 4.99013 10.9508 6.56392 10.698 7.8258H17.8505C18.653 7.8258 19.3593 8.43448 19.3982 9.23607C19.4353 10.0003 18.8931 10.6413 18.1734 10.7677C18.5554 11.036 18.8064 11.4782 18.8064 11.9806C18.8064 12.7122 18.2761 13.3164 17.5799 13.4387C17.9618 13.707 18.2129 14.1492 18.2129 14.6516C18.2129 15.4443 17.5897 16.0859 16.8071 16.1275C17.1534 16.3993 17.3665 16.8332 17.3146 17.319C17.241 18.0078 16.6207 18.5097 15.928 18.5097H7.79434C6.98089 18.5097 6.23747 18.05 5.87362 17.3226H4.56129V9.0129ZM4.56129 9.0129V18.5097H1.89032L1.50422 14.2225L1 9.0129H4.56129Z" stroke="#2F80ED" stroke-width="1.08" stroke-miterlimit="10"/>
</svg>
