<svg width="21" height="16" viewBox="0 0 21 16" fill="none" xmlns="http://www.w3.org/2000/svg">
<path d="M19.3036 4.90991C19.7841 4.81539 20.0462 4.50902 20.0462 4.03249C20.0462 2.9546 18.8429 3.10967 17.9455 3.10967L17.9455 6.21093H18.5809V4.97046H18.6683L19.5499 6.21093H20.3282L19.3036 4.90991ZM18.7674 4.54685H18.5809V3.60517H18.7754C19.1765 3.60517 19.3949 3.76395 19.3949 4.06279C19.3949 4.38045 19.1765 4.54685 18.7674 4.54685Z" fill="#081D31"/>
<path d="M15.7255 3.1134H17.5245V3.64286H16.361V4.33125H17.4848V4.85309H16.361V5.69273H17.5245V6.21461H15.7255V3.1134Z" fill="#081D31"/>
<path d="M12.9974 3.1134L13.8671 5.20105L14.7487 3.1134H15.4437L14.0339 6.29784H13.6924L12.3025 3.1134H12.9974Z" fill="#081D31"/>
<path d="M10.7776 3C11.7585 3 12.5488 3.75637 12.5488 4.68676C12.5488 5.62092 11.7545 6.37358 10.7776 6.37358C9.79676 6.37358 9.00653 5.61711 9.00653 4.68676C9.00648 3.75261 9.80082 3 10.7776 3Z" fill="url(#paint0_linear_2_3426)"/>
<path d="M8.81986 3.23062V3.94921C8.02173 3.18903 6.96143 3.77152 6.96143 4.6678C6.96143 5.61334 8.05344 6.12394 8.81986 5.39396V6.11255C7.64047 6.65335 6.30615 5.89698 6.30615 4.6678C6.30615 3.48778 7.62061 2.66333 8.81986 3.23062Z" fill="#081D31"/>
<path d="M4.95992 5.73805C5.41261 5.73805 5.84945 5.15943 4.82887 4.81528C4.23327 4.60724 4.02673 4.38415 4.02673 3.95678C4.02673 3.07932 5.24184 2.76923 6.00036 3.41603L5.66677 3.82439C5.2538 3.38573 4.67795 3.58991 4.67795 3.91905C4.67795 4.08541 4.7852 4.17992 5.16641 4.3085C5.88917 4.55813 6.10361 4.78132 6.10361 5.27667C6.10361 6.39242 4.56281 6.69121 3.85596 5.70404L4.26503 5.32964C4.41189 5.59813 4.65809 5.73805 4.95992 5.73805Z" fill="#081D31"/>
<path d="M3.60978 3.1134H2.97437V6.21461H3.60978V3.1134Z" fill="#081D31"/>
<path d="M21 11.1743V7.31726C19.8154 8.02187 12.9534 11.3644 6.21564 12.5693H19.4202C20.2226 12.5598 21 11.9388 21 11.1743Z" fill="url(#paint1_linear_2_3426)"/>
<path d="M0.929295 3.1134H0V6.21461H0.929243C2.15631 6.21461 2.68048 5.3675 2.68048 4.66782C2.68053 3.75634 1.96573 3.1134 0.929295 3.1134ZM1.6718 5.45067C1.47722 5.61708 1.21116 5.69273 0.802138 5.69273H0.635316V3.64286H0.802138C1.21116 3.64286 1.46532 3.70718 1.6718 3.89244C1.89815 4.08162 2.02526 4.36898 2.02526 4.66777C2.02531 4.96656 1.89815 5.25397 1.6718 5.45067Z" fill="#081D31"/>
<defs>
<linearGradient id="paint0_linear_2_3426" x1="10.7777" y1="3" x2="10.7777" y2="6.37358" gradientUnits="userSpaceOnUse">
<stop stop-color="#DE5214"/>
<stop offset="1" stop-color="#F38D1D"/>
</linearGradient>
<linearGradient id="paint1_linear_2_3426" x1="13.6078" y1="7.31726" x2="13.6078" y2="12.5693" gradientUnits="userSpaceOnUse">
<stop stop-color="#E35E17"/>
<stop offset="1" stop-color="#F38E1D"/>
</linearGradient>
</defs>
</svg>
