<svg width="20" height="20" viewBox="0 0 20 20" fill="none" xmlns="http://www.w3.org/2000/svg">
<path d="M15.0059 18.9904L5.01117 18.9999C2.81233 19.0019 1.01178 17.2048 1.00928 15.006L0.999788 5.01128C0.997789 2.81244 2.79484 1.01189 4.99368 1.00939L14.9884 0.999895C17.1872 0.997896 18.9878 2.79495 18.9903 4.99379L18.9998 14.9885C19.0023 17.1878 17.2047 18.9884 15.0059 18.9904Z" fill="url(#paint0_radial_403_32)"/>
<path d="M15.0083 18.995L5.00834 19.0045C2.80834 19.0065 1.00684 17.2085 1.00434 15.0085L0.994844 5.00846C0.992844 2.80846 2.79084 1.00696 4.99084 1.00446L14.9908 0.994959C17.1908 0.992959 18.9923 2.79096 18.9948 4.99096L19.0043 14.991C19.0068 17.1915 17.2083 18.993 15.0083 18.995Z" fill="url(#paint1_radial_403_32)"/>
<path d="M9.99994 13.4999C8.07044 13.4999 6.49994 11.9299 6.49994 9.99991C6.49994 8.06991 8.07044 6.49991 9.99994 6.49991C11.9294 6.49991 13.4999 8.06991 13.4999 9.99991C13.4999 11.9299 11.9294 13.4999 9.99994 13.4999ZM9.99994 7.49991C8.62144 7.49991 7.49994 8.62141 7.49994 9.99991C7.49994 11.3784 8.62144 12.4999 9.99994 12.4999C11.3784 12.4999 12.4999 11.3784 12.4999 9.99991C12.4999 8.62141 11.3784 7.49991 9.99994 7.49991Z" fill="white"/>
<path d="M13.75 7C14.1642 7 14.5 6.66421 14.5 6.25C14.5 5.83579 14.1642 5.5 13.75 5.5C13.3358 5.5 13 5.83579 13 6.25C13 6.66421 13.3358 7 13.75 7Z" fill="white"/>
<path d="M12.9999 16.4999H6.99994C5.07044 16.4999 3.49994 14.9299 3.49994 12.9999V6.99992C3.49994 5.06992 5.07044 3.49992 6.99994 3.49992H12.9999C14.9294 3.49992 16.4999 5.06992 16.4999 6.99992V12.9999C16.4999 14.9299 14.9294 16.4999 12.9999 16.4999ZM6.99994 4.49992C5.62144 4.49992 4.49994 5.62142 4.49994 6.99992V12.9999C4.49994 14.3784 5.62144 15.4999 6.99994 15.4999H12.9999C14.3784 15.4999 15.4999 14.3784 15.4999 12.9999V6.99992C15.4999 5.62142 14.3784 4.49992 12.9999 4.49992H6.99994Z" fill="white"/>
<defs>
<radialGradient id="paint0_radial_403_32" cx="0" cy="0" r="1" gradientUnits="userSpaceOnUse" gradientTransform="translate(7.69126 19.0129) scale(22.4377)">
<stop stop-color="#FFDD55"/>
<stop offset="0.328" stop-color="#FF543F"/>
<stop offset="0.348" stop-color="#FC5245"/>
<stop offset="0.504" stop-color="#E64771"/>
<stop offset="0.643" stop-color="#D53E91"/>
<stop offset="0.761" stop-color="#CC39A4"/>
<stop offset="0.841" stop-color="#C837AB"/>
</radialGradient>
<radialGradient id="paint1_radial_403_32" cx="0" cy="0" r="1" gradientUnits="userSpaceOnUse" gradientTransform="translate(3.89284 0.77011) scale(14.9065 9.9322)">
<stop stop-color="#4168C9"/>
<stop offset="0.999" stop-color="#4168C9" stop-opacity="0"/>
</radialGradient>
</defs>
</svg>
