<svg width="18" height="18" viewBox="0 0 18 18" fill="none" xmlns="http://www.w3.org/2000/svg">
<path d="M14.0059 17.9904L4.01117 17.9999C1.81233 18.0019 0.0117817 16.2048 0.00928305 14.006L-0.000211957 4.01128C-0.0022109 1.81244 1.79484 0.0118885 3.99368 0.00938987L13.9884 -0.000105145C16.1872 -0.00210409 17.9878 1.79495 17.9903 3.99379L17.9998 13.9885C18.0023 16.1878 16.2047 17.9884 14.0059 17.9904Z" fill="url(#paint0_linear_403_28)"/>
<path opacity="0.07" d="M4.30663 7.25252C4.22263 7.25252 4.13563 7.27202 4.05512 7.31252C3.92263 7.37852 3.82363 7.49252 3.77663 7.63302C3.70113 7.85952 3.77863 8.10802 3.96963 8.25102L5.80762 9.39902L5.73612 9.59002C5.70312 9.67952 4.90112 11.7915 3.38463 12.6185C3.30413 12.6625 3.25263 12.7215 3.24763 12.777C3.24213 12.833 3.28663 12.8835 3.32513 12.9155C3.65313 13.19 3.99213 13.385 4.66762 13.509L4.87213 13.5465L4.87262 13.7545C4.87362 14.0585 4.97013 14.38 5.06013 14.38C5.50662 14.38 6.43562 14.38 7.36412 14.844C7.87912 15.1015 8.60012 15.2555 8.99962 15.2555C9.39912 15.2555 10.1201 15.1015 10.6351 14.844C11.5631 14.38 12.4926 14.38 12.9391 14.38C13.0296 14.38 13.1261 14.0585 13.1266 13.7545L13.1271 13.5465L13.3316 13.509C14.0071 13.3855 14.3461 13.1905 14.6746 12.9155C14.7131 12.8835 14.7576 12.833 14.7521 12.777C14.7466 12.7215 14.6951 12.6625 14.6151 12.6185C13.0991 11.7915 12.2971 9.67952 12.2636 9.59002L12.1921 9.39902L14.0471 8.23902C14.2206 8.10752 14.2981 7.85952 14.2226 7.63302C14.1761 7.49252 14.0771 7.37902 13.9446 7.31252C13.8126 7.24602 13.6626 7.23602 13.5216 7.28252L12.2486 7.80352V6.05002C12.2486 4.23202 10.7916 2.75302 9.00062 2.75302C7.20762 2.75302 5.75062 4.23202 5.75062 6.05002V7.80402L4.46263 7.27752C4.41413 7.26102 4.36112 7.25252 4.30663 7.25252Z" fill="black"/>
<path opacity="0.07" d="M9.00003 15.5054C9.43403 15.5054 10.1935 15.3444 10.747 15.0679C11.6225 14.6304 12.5015 14.6304 12.939 14.6304C13.3765 14.6304 13.3765 13.7549 13.3765 13.7549C14.072 13.6279 14.4545 13.4259 14.835 13.1074C15.1005 12.8849 15.0385 12.5649 14.7345 12.3994C13.283 11.6079 12.4975 9.50287 12.4975 9.50287L14.1795 8.45087C14.4565 8.24337 14.569 7.88187 14.46 7.55337C14.3195 7.13187 13.8635 6.90437 13.4425 7.04537L12.499 7.43087V6.04987C12.499 4.11787 10.933 2.50287 9.00103 2.50287H8.99903C7.06703 2.50287 5.50103 4.11787 5.50103 6.04987V7.43137L4.55753 7.04587C4.13603 6.90487 3.68053 7.13237 3.54003 7.55387C3.43053 7.88187 3.54353 8.24337 3.82053 8.45137L5.50253 9.50337C5.50253 9.50337 4.71753 11.6079 3.26553 12.3999C2.96154 12.5654 2.89953 12.8859 3.16503 13.1079C3.54503 13.4264 3.92803 13.6284 4.62353 13.7554C4.62353 13.7554 4.62353 14.6309 5.06103 14.6309C5.49853 14.6309 6.37753 14.6309 7.25303 15.0684C7.80653 15.3444 8.56603 15.5054 9.00003 15.5054Z" stroke="black" stroke-width="3"/>
<path d="M9.00003 15.5054C9.43403 15.5054 10.1935 15.3444 10.747 15.0679C11.6225 14.6304 12.5015 14.6304 12.939 14.6304C13.3765 14.6304 13.3765 13.7549 13.3765 13.7549C14.072 13.6279 14.4545 13.4259 14.835 13.1074C15.1005 12.8849 15.0385 12.5649 14.7345 12.3994C13.283 11.6079 12.4975 9.50287 12.4975 9.50287L14.1795 8.45087C14.4565 8.24337 14.569 7.88187 14.46 7.55337C14.3195 7.13187 13.8635 6.90437 13.4425 7.04537L12.499 7.43087V6.04987C12.499 4.11787 10.933 2.50287 9.00103 2.50287H8.99903C7.06703 2.50287 5.50103 4.11787 5.50103 6.04987V7.43137L4.55753 7.04587C4.13603 6.90487 3.68053 7.13237 3.54003 7.55387C3.43053 7.88187 3.54353 8.24337 3.82053 8.45137L5.50253 9.50337C5.50253 9.50337 4.71753 11.6079 3.26553 12.3999C2.96154 12.5654 2.89953 12.8859 3.16503 13.1079C3.54503 13.4264 3.92803 13.6284 4.62353 13.7554C4.62353 13.7554 4.62353 14.6309 5.06103 14.6309C5.49853 14.6309 6.37753 14.6309 7.25303 15.0684C7.80653 15.3444 8.56603 15.5054 9.00003 15.5054Z" fill="white"/>
<defs>
<linearGradient id="paint0_linear_403_28" x1="7.30143" y1="-0.63427" x2="10.6986" y2="18.6346" gradientUnits="userSpaceOnUse">
<stop stop-color="#FEDE00"/>
<stop offset="1" stop-color="#FFD000"/>
</linearGradient>
</defs>
</svg>
