<svg width="18" height="18" viewBox="0 0 18 18" fill="none" xmlns="http://www.w3.org/2000/svg">
<path fill-rule="evenodd" clip-rule="evenodd" d="M2.452 0H15.5475C16.902 0 18 1.098 18 2.452V15.5475C18 16.902 16.902 18 15.548 18H2.452C1.098 18 0 16.902 0 15.548V2.452C0 1.098 1.098 0 2.452 0Z" fill="#212121"/>
<path fill-rule="evenodd" clip-rule="evenodd" d="M11.6041 7.3033C12.3921 7.8663 13.3576 8.1973 14.4001 8.1973V6.1918C14.2026 6.1918 14.0061 6.1713 13.8131 6.1303V7.7088C12.7706 7.7088 11.8056 7.3773 11.0171 6.8148V10.9068C11.0171 12.9538 9.35661 14.6133 7.30861 14.6133C6.54461 14.6133 5.83411 14.3823 5.24411 13.9863C5.91761 14.6743 6.85661 15.1013 7.89561 15.1013C9.94361 15.1013 11.6041 13.4418 11.6041 11.3948V7.3033ZM12.3286 5.2803C11.9261 4.8408 11.6616 4.2723 11.6041 3.6438V3.3858H11.0476C11.1876 4.1843 11.6656 4.8668 12.3286 5.2803ZM6.53961 12.4158C6.31461 12.1208 6.19311 11.7603 6.19361 11.3893C6.19361 10.4528 6.95311 9.6938 7.89011 9.6938C8.06461 9.6938 8.23811 9.7203 8.40461 9.7733V7.7233C8.21011 7.6968 8.01411 7.6853 7.81761 7.6893V9.2848C7.65111 9.2318 7.47761 9.2053 7.30261 9.2053C6.36561 9.2053 5.60611 9.9643 5.60611 10.9008C5.60661 11.5633 5.98611 12.1368 6.53961 12.4158Z" fill="#EC407A"/>
<path fill-rule="evenodd" clip-rule="evenodd" d="M11.0171 6.8148C11.8051 7.3778 12.7706 7.7088 13.8131 7.7088V6.1303C13.2311 6.0063 12.7161 5.7023 12.3286 5.2798C11.6656 4.8663 11.1881 4.1843 11.0481 3.3858H9.58658V11.3948C9.58308 12.3283 8.82508 13.0843 7.89008 13.0843C7.33908 13.0843 6.84958 12.8218 6.53958 12.4153C5.98608 12.1363 5.60658 11.5628 5.60658 10.9008C5.60658 9.96431 6.36608 9.20531 7.30308 9.20531C7.48258 9.20531 7.65558 9.23331 7.81808 9.28481V7.6898C5.80608 7.7313 4.18808 9.37431 4.18808 11.3953C4.18808 12.4043 4.59108 13.3188 5.24508 13.9868C5.83508 14.3828 6.54558 14.6138 7.30958 14.6138C9.35758 14.6138 11.0181 12.9543 11.0181 10.9073L11.0171 6.8148Z" fill="white"/>
<path fill-rule="evenodd" clip-rule="evenodd" d="M13.813 6.13111V5.70411C13.288 5.70511 12.774 5.55811 12.3285 5.28011C12.7225 5.71161 13.2415 6.00911 13.813 6.13111ZM11.0475 3.38611C11.034 3.30961 11.024 3.23311 11.017 3.15561V2.89761H8.99897V10.9071C8.99597 11.8406 8.23747 12.5966 7.30247 12.5966C7.02798 12.5966 6.76898 12.5316 6.53948 12.4156C6.84948 12.8221 7.33898 13.0846 7.88998 13.0846C8.82498 13.0846 9.58297 12.3286 9.58648 11.3951V3.38611H11.0475ZM7.81748 7.69011V7.23561C7.64898 7.21261 7.47898 7.20111 7.30848 7.20111C5.25998 7.20111 3.59998 8.86061 3.59998 10.9076C3.59998 12.1911 4.25248 13.3221 5.24398 13.9871C4.58998 13.3191 4.18698 12.4046 4.18698 11.3956C4.18698 9.37461 5.80548 7.73161 7.81748 7.69011Z" fill="#81D4FA"/>
</svg>
