<svg width="49" height="20" viewBox="0 0 49 20" fill="none" xmlns="http://www.w3.org/2000/svg">
<path d="M8.79889 2.57867C8.23288 3.25306 7.33118 3.78746 6.43098 3.70918C6.31206 2.79996 6.76065 1.826 7.27849 1.22235C7.84299 0.534413 8.8305 0.0406595 9.63134 1.52588e-05C9.72618 0.949887 9.35586 1.8832 8.80039 2.57867H8.79889ZM9.62231 3.88832C8.31416 3.80854 7.19118 4.63949 6.57098 4.63949C5.93723 4.63949 4.98736 3.92746 3.95319 3.95154C2.61192 3.9681 1.35797 4.73432 0.676052 5.9672C-0.743487 8.4194 0.307242 12.0503 1.67108 14.0494C2.33795 15.0369 3.13578 16.1192 4.18802 16.0891C5.18305 16.0485 5.58347 15.4313 6.78323 15.4313C7.99804 15.4313 8.34277 16.0891 9.40253 16.065C10.4909 16.0485 11.1803 15.0775 11.8472 14.09C12.6074 12.9686 12.9205 11.8697 12.9371 11.8155C12.9205 11.7914 10.8281 10.9845 10.813 8.55338C10.7965 6.51364 12.4584 5.54269 12.5291 5.48699C11.5958 4.07649 10.1221 3.92746 9.6208 3.88982L9.62231 3.88832ZM17.1731 1.12752V15.9627H19.4537V10.8912H22.6074C25.4841 10.8912 27.5073 8.89208 27.5073 6.00634C27.5073 3.11457 25.5248 1.12902 22.6857 1.12902L17.1731 1.12752ZM19.4537 3.07242H22.0805C24.0555 3.07242 25.1861 4.13821 25.1861 6.01236C25.1861 7.88651 24.0555 8.96133 22.0655 8.96133H19.4537V3.07242ZM31.6605 16.0726C33.0951 16.0726 34.4198 15.344 35.025 14.1819H35.0732V15.9627H37.1806V8.57596C37.1806 6.44439 35.4886 5.05797 32.8769 5.05797C30.4623 5.05797 28.6739 6.46095 28.6122 8.38177H30.658C30.8311 7.46502 31.662 6.8689 32.8151 6.8689C34.2106 6.8689 34.9874 7.52674 34.9874 8.73553V9.54992L32.1498 9.72303C29.4989 9.88711 28.0718 10.977 28.0718 12.8827C28.0718 14.8036 29.547 16.0741 31.662 16.0741L31.6605 16.0726ZM32.2807 14.3158C31.0644 14.3158 30.2892 13.7272 30.2892 12.827C30.2892 11.8937 31.0343 11.3443 32.4524 11.257L34.9858 11.1004V11.9389C34.9858 13.3283 33.8177 14.3158 32.2717 14.3158H32.2807ZM39.9956 20C42.213 20 43.2577 19.1375 44.1669 16.5422L48.1651 5.20549H45.8529L43.1719 13.9621H43.1237L40.4427 5.20549H38.0598L41.918 16.0018L41.7132 16.6597C41.3595 17.7661 40.7965 18.1951 39.7924 18.1951C39.6118 18.1951 39.267 18.1725 39.1255 18.1575V19.9383C39.258 19.9759 39.824 19.9925 39.9881 19.9925L39.9956 20Z" fill="white"/>
</svg>
