<svg width="117" height="24" viewBox="0 0 117 24" fill="none" xmlns="http://www.w3.org/2000/svg">
<path d="M51.398 8.17386H48.0191C47.8204 8.17386 47.6216 8.37262 47.5222 8.57138L46.1309 17.3168C46.1309 17.5156 46.2303 17.6149 46.4291 17.6149H48.2179C48.4167 17.6149 48.516 17.5156 48.516 17.3168L48.9136 14.8323C48.9136 14.6335 49.1123 14.4348 49.4105 14.4348H50.5036C52.7894 14.4348 54.0813 13.3416 54.3794 11.1553C54.5782 10.2608 54.3794 9.4658 53.9819 8.9689C53.3856 8.472 52.4912 8.17386 51.398 8.17386ZM51.7956 11.4534C51.5968 12.646 50.7024 12.646 49.808 12.646H49.2117L49.6092 10.3602C49.6092 10.2608 49.7086 10.1615 49.9074 10.1615H50.1061C50.7024 10.1615 51.2987 10.1615 51.5968 10.559C51.7956 10.6584 51.7956 10.9565 51.7956 11.4534Z" fill="#139AD6"/>
<path d="M27.05 8.17386H23.6711C23.4723 8.17386 23.2736 8.37262 23.1742 8.57138L21.7829 17.3168C21.7829 17.5156 21.8823 17.6149 22.081 17.6149H23.6711C23.8698 17.6149 24.0686 17.4162 24.168 17.2174L24.5655 14.8323C24.5655 14.6335 24.7643 14.4348 25.0624 14.4348H26.1556C28.4413 14.4348 29.7332 13.3416 30.0314 11.1553C30.2301 10.2608 30.0314 9.4658 29.6338 8.9689C29.0376 8.472 28.2425 8.17386 27.05 8.17386ZM27.4475 11.4534C27.2487 12.646 26.3543 12.646 25.4599 12.646H24.963L25.3605 10.3602C25.3605 10.2608 25.4599 10.1615 25.6587 10.1615H25.8574C26.4537 10.1615 27.05 10.1615 27.3481 10.559C27.4475 10.6584 27.5469 10.9565 27.4475 11.4534Z" fill="#263B80"/>
<path d="M37.2859 11.354H35.6959C35.5965 11.354 35.3977 11.4534 35.3977 11.5528L35.2983 12.0497L35.199 11.8509C34.8014 11.354 34.1058 11.1553 33.3108 11.1553C31.5219 11.1553 29.9319 12.5466 29.6337 14.4348C29.435 15.4286 29.7331 16.323 30.23 16.9193C30.7269 17.5156 31.4226 17.7144 32.317 17.7144C33.8077 17.7144 34.6027 16.8199 34.6027 16.8199L34.5033 17.3168C34.5033 17.5156 34.6027 17.615 34.8014 17.615H36.2921C36.4909 17.615 36.6896 17.4162 36.789 17.2175L37.6834 11.6522C37.584 11.5528 37.3853 11.354 37.2859 11.354ZM35.0002 14.5342C34.8014 15.4286 34.1058 16.1243 33.112 16.1243C32.6151 16.1243 32.2176 15.9255 32.0188 15.7268C31.8201 15.4286 31.7207 15.0311 31.7207 14.5342C31.8201 13.6398 32.6151 12.9441 33.5095 12.9441C34.0064 12.9441 34.3045 13.1429 34.6027 13.3416C34.9008 13.6398 35.0002 14.1367 35.0002 14.5342Z" fill="#263B80"/>
<path d="M61.5343 11.3539H59.9442C59.8448 11.3539 59.6461 11.4533 59.6461 11.5527L59.5467 12.0496L59.4473 11.8508C59.0498 11.3539 58.3541 11.1552 57.5591 11.1552C55.7703 11.1552 54.1802 12.5465 53.8821 14.4347C53.6833 15.4285 53.9815 16.3229 54.4784 16.9192C54.9752 17.5155 55.6709 17.7142 56.5653 17.7142C58.056 17.7142 58.851 16.8198 58.851 16.8198L58.7516 17.3167C58.7516 17.5155 58.851 17.6149 59.0498 17.6149H60.5405C60.7392 17.6149 60.938 17.4161 61.0374 17.2173L61.9318 11.6521C61.8324 11.5527 61.733 11.3539 61.5343 11.3539ZM59.2485 14.5341C59.0498 15.4285 58.3541 16.1242 57.3603 16.1242C56.8635 16.1242 56.4659 15.9254 56.2672 15.7266C56.0684 15.4285 55.969 15.031 55.969 14.5341C56.0684 13.6397 56.8634 12.944 57.7579 12.944C58.2548 12.944 58.5529 13.1427 58.851 13.3415C59.2485 13.6396 59.3479 14.1366 59.2485 14.5341Z" fill="#139AD6"/>
<path d="M45.932 11.354H44.2425C44.0437 11.354 43.9444 11.4534 43.845 11.5528L41.6586 14.9317L40.6648 11.7515C40.5654 11.5528 40.4661 11.4534 40.1679 11.4534H38.5778C38.3791 11.4534 38.2797 11.6522 38.2797 11.8509L40.0685 17.118L38.3791 19.5031C38.2797 19.7019 38.3791 20 38.5778 20H40.1679C40.3667 20 40.4661 19.9006 40.5654 19.8012L46.0313 11.9503C46.3295 11.6522 46.1307 11.354 45.932 11.354Z" fill="#263B80"/>
<path d="M63.4229 8.47197L62.0316 17.4161C62.0316 17.6149 62.131 17.7143 62.3297 17.7143H63.721C63.9198 17.7143 64.1185 17.5155 64.2179 17.3167L65.6092 8.57135C65.6092 8.37259 65.5099 8.27321 65.3111 8.27321H63.721C63.6216 8.17383 63.5223 8.27321 63.4229 8.47197Z" fill="#139AD6"/>
<path d="M14.4286 5.19255C13.733 4.39752 12.441 4 10.6522 4H5.68324C5.38511 4 5.08697 4.29814 4.98759 4.59627L3 17.615C3 17.9131 3.19876 18.1119 3.39752 18.1119H6.47828L7.27331 13.2423V13.441C7.37269 13.1429 7.67083 12.8448 7.96897 12.8448H9.45966C12.3417 12.8448 14.528 11.6522 15.2237 8.37269C15.2237 8.27331 15.2237 8.17393 15.2237 8.07455C15.1243 8.07455 15.1243 8.07455 15.2237 8.07455C15.323 6.78262 15.1243 5.98759 14.4286 5.19255Z" fill="#263B80"/>
<path d="M15.1245 8.07449C15.1245 8.17387 15.1245 8.27325 15.1245 8.37263C14.4288 11.7515 12.2425 12.8447 9.36048 12.8447H7.86979C7.57165 12.8447 7.27351 13.1428 7.17413 13.441L6.18034 19.5031C6.18034 19.7019 6.27972 19.9006 6.57786 19.9006H9.16172C9.45986 19.9006 9.758 19.7019 9.758 19.4037V19.3044L10.2549 16.2236V16.0248C10.2549 15.7267 10.553 15.5279 10.8512 15.5279H11.2487C13.7332 15.5279 15.7208 14.5342 16.2177 11.5528C16.4164 10.3602 16.317 9.26705 15.7208 8.57139C15.6214 8.37263 15.4226 8.17387 15.1245 8.07449Z" fill="#139AD6"/>
<path d="M14.4285 7.77638C14.3291 7.77638 14.2298 7.677 14.1304 7.677C14.031 7.677 13.9316 7.677 13.8322 7.57762C13.4347 7.47824 13.0372 7.47824 12.5403 7.47824H8.6645C8.56513 7.47824 8.46575 7.47824 8.36637 7.57762C8.16761 7.677 8.06823 7.87576 8.06823 8.07452L7.27319 13.2422V13.441C7.37257 13.1429 7.67071 12.8447 7.96885 12.8447H9.45954C12.3415 12.8447 14.5279 11.6522 15.2235 8.37265C15.2235 8.27328 15.2235 8.17389 15.3229 8.07452C15.1242 7.97514 15.0248 7.87576 14.826 7.87576C14.5279 7.77638 14.5279 7.77638 14.4285 7.77638Z" fill="#232C65"/>
<path d="M105 22C110.523 22 115 17.5228 115 12C115 6.47715 110.523 2 105 2C99.4772 2 95 6.47715 95 12C95 17.5228 99.4772 22 105 22Z" fill="#F7931A"/>
<path d="M109.493 10.7625C109.689 9.4525 108.691 8.74813 107.327 8.27813L107.77 6.50313L106.69 6.23438L106.259 7.9625C105.975 7.89125 105.684 7.825 105.393 7.75875L105.827 6.01938L104.747 5.75L104.305 7.52437C104.07 7.47063 103.839 7.41813 103.615 7.36188L103.616 7.35625L102.126 6.98438L101.839 8.13813C101.839 8.13813 102.641 8.32188 102.624 8.33313C103.061 8.4425 103.14 8.73188 103.127 8.96188L102.623 10.9838C102.653 10.9913 102.692 11.0025 102.736 11.0194L102.621 10.9913L101.915 13.8238C101.861 13.9563 101.726 14.1556 101.419 14.08C101.431 14.0956 100.634 13.8844 100.634 13.8844L100.098 15.1206L101.504 15.4713C101.766 15.5369 102.022 15.6056 102.274 15.67L101.827 17.465L102.906 17.7338L103.349 15.9588C103.644 16.0381 103.93 16.1119 104.21 16.1819L103.769 17.9494L104.849 18.2181L105.296 16.4269C107.138 16.7756 108.523 16.635 109.106 14.9688C109.576 13.6275 109.083 12.8531 108.114 12.3488C108.82 12.1863 109.351 11.7219 109.493 10.7625ZM107.024 14.2238C106.691 15.5656 104.432 14.84 103.699 14.6581L104.293 12.28C105.026 12.4631 107.374 12.825 107.024 14.2238ZM107.359 10.7431C107.054 11.9638 105.174 11.3431 104.565 11.1913L105.102 9.035C105.712 9.18688 107.676 9.47 107.359 10.7431Z" fill="white"/>
</svg>
