<svg width="22" height="20" viewBox="0 0 22 20" fill="none" xmlns="http://www.w3.org/2000/svg">
<path d="M20.8517 8.68348L20.8518 8.68343L18.2979 6.99034V1.33121C18.2979 1.14828 18.1496 0.999969 17.9667 0.999969H4.03286C3.84993 0.999969 3.70162 1.14828 3.70162 1.33121V6.99074L1.14822 8.68343L1.14826 8.68352C1.05896 8.74284 1 8.84424 1 8.95951V19.2174C1 19.4004 1.14831 19.5487 1.33124 19.5487H20.6688C20.8517 19.5487 21 19.4004 21 19.2174V8.95951C21 8.84424 20.941 8.74284 20.8517 8.68348ZM3.70162 9.8419L2.66262 9.29076H3.70162V9.8419ZM1.66249 9.51017L9.27997 13.5509L1.66249 18.6002V9.51017ZM10.9999 13.2056L19.5697 18.8862H2.43013L10.9999 13.2056ZM12.7199 13.5509L20.3375 9.51017V18.6004L12.7199 13.5509ZM18.2979 9.29076H19.3374L18.2979 9.84212V9.29076ZM19.5697 8.62827H18.2979V7.78515L19.5697 8.62827ZM17.6355 1.66245V10.1935L12.0915 13.1344L11.1828 12.5321C11.0719 12.4585 10.9277 12.4585 10.8168 12.5321L9.90836 13.1343L4.3641 10.1933V1.66245H17.6355ZM3.70162 8.62827H2.43044L3.70162 7.78559V8.62827Z" fill="#2F80ED" stroke="#2F80ED" stroke-width="0.24"/>
<path d="M10.9997 9.71109H13.6388C13.8217 9.71109 13.97 9.56278 13.97 9.37985C13.97 9.19692 13.8217 9.04861 13.6388 9.04861H10.9997C9.72714 9.04861 8.69185 8.01332 8.69185 6.74077V6.64303C8.69185 5.37049 9.72714 4.3352 10.9997 4.3352C12.2722 4.3352 13.3075 5.37049 13.3075 6.64303V6.8874C13.3075 7.16286 13.0834 7.387 12.8079 7.387C12.5324 7.387 12.3083 7.16291 12.3083 6.8874V6.42313C12.3083 5.63416 11.6665 4.99225 10.8775 4.99225C10.0885 4.99225 9.44664 5.63411 9.44664 6.42313C9.44664 7.21211 10.0885 7.85397 10.8775 7.85397C11.2383 7.85397 11.5681 7.71948 11.82 7.49835C12.0251 7.82884 12.3911 8.04945 12.8079 8.04945C13.4487 8.04945 13.97 7.52816 13.97 6.88736V6.64299C13.97 5.00515 12.6375 3.67267 10.9997 3.67267C9.36184 3.67267 8.02936 5.00515 8.02936 6.64299V6.74073C8.02936 8.37861 9.36184 9.71109 10.9997 9.71109ZM10.8775 7.19148C10.4538 7.19148 10.1091 6.84681 10.1091 6.42313C10.1091 5.99945 10.4538 5.65474 10.8775 5.65474C11.3011 5.65474 11.6458 5.99945 11.6458 6.42313C11.6458 6.84681 11.3012 7.19148 10.8775 7.19148Z" fill="#2F80ED" stroke="#2F80ED" stroke-width="0.24"/>
</svg>
