<svg width="24" height="24" viewBox="0 0 24 24" fill="none" xmlns="http://www.w3.org/2000/svg">
<path d="M12 22C17.5228 22 22 17.5228 22 12C22 6.47715 17.5228 2 12 2C6.47715 2 2 6.47715 2 12C2 17.5228 6.47715 22 12 22Z" fill="#F7931A"/>
<path d="M16.4931 10.7625C16.6893 9.4525 15.6912 8.74813 14.3274 8.27813L14.7699 6.50313L13.6899 6.23438L13.2587 7.9625C12.9749 7.89125 12.6837 7.825 12.3931 7.75875L12.8274 6.01938L11.7474 5.75L11.3049 7.52437C11.0699 7.47063 10.8387 7.41813 10.6149 7.36188L10.6162 7.35625L9.12619 6.98438L8.83869 8.13813C8.83869 8.13813 9.64056 8.32188 9.62369 8.33313C10.0612 8.4425 10.1399 8.73188 10.1268 8.96188L9.62306 10.9838C9.65306 10.9913 9.69181 11.0025 9.73556 11.0194L9.62119 10.9913L8.91494 13.8238C8.86119 13.9563 8.72556 14.1556 8.41931 14.08C8.43056 14.0956 7.63431 13.8844 7.63431 13.8844L7.09806 15.1206L8.50431 15.4713C8.76556 15.5369 9.02181 15.6056 9.27369 15.67L8.82682 17.465L9.90619 17.7338L10.3487 15.9588C10.6437 16.0381 10.9299 16.1119 11.2099 16.1819L10.7687 17.9494L11.8487 18.2181L12.2956 16.4269C14.1381 16.7756 15.5231 16.635 16.1062 14.9688C16.5762 13.6275 16.0831 12.8531 15.1137 12.3488C15.8199 12.1863 16.3512 11.7219 16.4931 10.7625ZM14.0243 14.2238C13.6912 15.5656 11.4318 14.84 10.6993 14.6581L11.2931 12.28C12.0256 12.4631 14.3737 12.825 14.0243 14.2238ZM14.3587 10.7431C14.0543 11.9638 12.1743 11.3431 11.5649 11.1913L12.1024 9.035C12.7118 9.18688 14.6762 9.47 14.3587 10.7431Z" fill="white"/>
</svg>
