<svg width="19" height="18" viewBox="0 0 19 18" fill="none" xmlns="http://www.w3.org/2000/svg">
<path d="M16.1 17.6641C16.8608 17.6641 17.48 17.0449 17.48 16.2841V13.0641C17.48 12.3032 16.8608 11.6841 16.1 11.6841C15.0236 11.6841 13.9656 11.5148 12.9536 11.1808C12.7117 11.1044 12.4536 11.0952 12.2068 11.154C11.96 11.2128 11.7339 11.3375 11.5524 11.5148L10.2276 12.8396C7.93785 11.5965 6.0573 9.71659 4.81343 7.42724L6.12719 6.1052C6.50623 5.75376 6.64239 5.21924 6.48047 4.70496C6.14719 3.6914 5.97823 2.63104 5.97999 1.56408C5.97999 0.803245 5.36083 0.184086 4.59999 0.184086H1.38C0.619159 0.184086 0 0.803245 0 1.56408C0 10.4421 7.22199 17.6641 16.1 17.6641ZM1.38 1.10408H4.59999C4.72199 1.10408 4.83899 1.15255 4.92526 1.23882C5.01153 1.32508 5.05999 1.44208 5.05999 1.56408C5.05999 2.73892 5.24399 3.8926 5.60555 4.98648C5.63211 5.06586 5.63522 5.15121 5.6145 5.23231C5.59377 5.31341 5.5501 5.38682 5.48871 5.44372L3.68919 7.25244C5.19523 10.2222 7.41979 12.4467 10.4033 13.9657L12.1964 12.1717C12.2576 12.1111 12.3341 12.0684 12.4177 12.0479C12.5013 12.0275 12.5889 12.0302 12.6711 12.0557C13.7715 12.4201 14.9251 12.6041 16.1 12.6041C16.353 12.6041 16.56 12.8111 16.56 13.0641V16.2841C16.56 16.5371 16.353 16.7441 16.1 16.7441C7.72983 16.7441 0.919998 9.93423 0.919998 1.56408C0.919998 1.44208 0.968463 1.32508 1.05473 1.23882C1.141 1.15255 1.258 1.10408 1.38 1.10408Z" fill="#2F80ED"/>
<path fill-rule="evenodd" clip-rule="evenodd" d="M11.2292 4.01082C10.7724 3.91945 10.3042 3.91557 9.84896 3.99754L9.67615 3.01749C10.2528 2.91411 10.8458 2.91925 11.4244 3.03498L11.4638 3.04302C12.2639 3.21018 13.0067 3.58351 13.6184 4.1263C14.2301 4.66909 14.6892 5.36218 14.9503 6.13669L14.963 6.17481C15.1118 6.62884 15.1897 7.10089 15.1959 7.57458H14.2007C14.1945 7.20573 14.1332 6.83829 14.0173 6.48472C13.8134 5.86236 13.4478 5.30535 12.9579 4.87068C12.468 4.436 11.8715 4.13926 11.2292 4.01082Z" fill="#2F80ED"/>
<path fill-rule="evenodd" clip-rule="evenodd" d="M11.9096 1.1749C11.0727 1.00753 10.215 1.00031 9.38112 1.15025L9.19995 0.12281C9.60691 0.0498256 10.0188 0.00927378 10.4317 0.00141598C10.9939 -0.00928505 11.5581 0.0406481 12.1142 0.151875C13.4726 0.423577 14.7345 1.05127 15.7708 1.97074C16.807 2.89021 17.5804 4.06846 18.0118 5.38493C18.1885 5.92387 18.3052 6.47804 18.3614 7.03759C18.3842 7.26371 18.3971 7.4907 18.4 7.71792H17.3566C17.3464 7.03834 17.2339 6.36123 17.0204 5.70983C16.6466 4.56898 15.9764 3.54792 15.0783 2.75111C14.1803 1.95431 13.0868 1.41035 11.9096 1.1749Z" fill="#2F80ED"/>
</svg>
