<svg width="22" height="14" viewBox="0 0 22 14" fill="none" xmlns="http://www.w3.org/2000/svg">
<rect x="3.20001" y="2.8" width="1.2" height="1.2" fill="#2F80ED"/>
<rect x="3.20001" y="5.2" width="1.2" height="1.2" fill="#2F80ED"/>
<rect x="3.20001" y="7.60001" width="1.2" height="1.2" fill="#2F80ED"/>
<rect x="12.8" y="2.8" width="1.2" height="1.2" fill="#2F80ED"/>
<rect x="12.8" y="5.2" width="1.2" height="1.2" fill="#2F80ED"/>
<rect x="12.8" y="7.60001" width="1.2" height="1.2" fill="#2F80ED"/>
<rect x="5.59998" y="2.8" width="1.2" height="1.2" fill="#2F80ED"/>
<rect x="5.59998" y="5.2" width="1.2" height="1.2" fill="#2F80ED"/>
<rect x="5.59998" y="7.60001" width="1.2" height="1.2" fill="#2F80ED"/>
<rect x="15.2" y="2.8" width="1.2" height="1.2" fill="#2F80ED"/>
<rect x="15.2" y="5.2" width="1.2" height="1.2" fill="#2F80ED"/>
<rect x="15.2" y="7.60001" width="1.2" height="1.2" fill="#2F80ED"/>
<rect x="8" y="2.8" width="1.2" height="1.2" fill="#2F80ED"/>
<rect x="8" y="5.2" width="1.2" height="1.2" fill="#2F80ED"/>
<rect x="8" y="7.60001" width="1.2" height="1.2" fill="#2F80ED"/>
<rect x="17.6" y="2.8" width="1.2" height="1.2" fill="#2F80ED"/>
<rect x="17.6" y="5.2" width="1.2" height="1.2" fill="#2F80ED"/>
<rect x="17.6" y="7.60001" width="1.2" height="1.2" fill="#2F80ED"/>
<rect x="10.4" y="2.8" width="1.2" height="1.2" fill="#2F80ED"/>
<rect x="10.4" y="5.2" width="1.2" height="1.2" fill="#2F80ED"/>
<rect x="10.4" y="7.60001" width="1.2" height="1.2" fill="#2F80ED"/>
<rect x="4.40002" y="10" width="13.2" height="1.2" fill="#2F80ED"/>
<rect x="1.39999" y="0.999994" width="19.2" height="12" stroke="#2F80ED" stroke-width="1.2"/>
</svg>
