<svg width="22" height="22" viewBox="0 0 22 22" fill="none" xmlns="http://www.w3.org/2000/svg">
<path d="M11.48 20.6V12.92H10.04V10.52H11.48V9.07997C11.48 7.15997 12.44 5.71997 14.36 5.71997C15.7534 5.71997 16.76 6.19997 16.76 6.19997V8.11997H15.8C14.7704 8.11997 14.36 8.36189 14.36 9.07997V10.52H16.76L16.28 12.92H14.36V20.6" stroke="white" stroke-miterlimit="10" stroke-linecap="round"/>
<path d="M3.31999 20.6H18.68C19.7403 20.6 20.6 19.7403 20.6 18.68V3.32002C20.6 2.2597 19.7403 1.40002 18.68 1.40002H3.31999C2.25967 1.40002 1.39999 2.2597 1.39999 3.32002V18.68C1.39999 19.7403 2.25967 20.6 3.31999 20.6Z" stroke="white" stroke-miterlimit="10" stroke-linecap="round" stroke-linejoin="round"/>
</svg>
