<svg width="22" height="22" viewBox="0 0 22 22" fill="none" xmlns="http://www.w3.org/2000/svg">
<path d="M6.68001 21.08H15.32C18.501 21.08 21.08 18.5009 21.08 15.32V6.67998C21.08 3.49902 18.501 0.919983 15.32 0.919983H6.68001C3.49905 0.919983 0.920013 3.49902 0.920013 6.67998V15.32C0.920013 18.5009 3.49905 21.08 6.68001 21.08Z" stroke="white" stroke-miterlimit="10"/>
<path d="M11 6.20001C9.72697 6.20001 8.50607 6.70572 7.6059 7.6059C6.70572 8.50607 6.20001 9.72697 6.20001 11C6.20001 12.2731 6.70572 13.4939 7.6059 14.3941C8.50607 15.2943 9.72697 15.8 11 15.8C12.2731 15.8 13.4939 15.2943 14.3941 14.3941C15.2943 13.4939 15.8 12.2731 15.8 11C15.8 9.72697 15.2943 8.50607 14.3941 7.6059C13.4939 6.70572 12.2731 6.20001 11 6.20001Z" stroke="white" stroke-miterlimit="10"/>
<path d="M16.76 4.28003C16.5054 4.28003 16.2612 4.38117 16.0812 4.56121C15.9011 4.74124 15.8 4.98542 15.8 5.24003C15.8 5.49464 15.9011 5.73882 16.0812 5.91885C16.2612 6.09889 16.5054 6.20003 16.76 6.20003C17.0146 6.20003 17.2588 6.09889 17.4388 5.91885C17.6188 5.73882 17.72 5.49464 17.72 5.24003C17.72 4.98542 17.6188 4.74124 17.4388 4.56121C17.2588 4.38117 17.0146 4.28003 16.76 4.28003Z" fill="white"/>
</svg>
