<svg width="18" height="18" viewBox="0 0 18 18" fill="none" xmlns="http://www.w3.org/2000/svg">
<path d="M3.25 18H14.75C16.545 18 18 16.545 18 14.75V3.25C18 1.455 16.545 0 14.75 0H3.25C1.455 0 0 1.455 0 3.25V14.75C0 16.545 1.455 18 3.25 18Z" fill="#00C300"/>
<path d="M15.5563 8.20804C15.5563 5.27554 12.6163 2.88954 9.00285 2.88954C5.38935 2.88954 2.44885 5.27554 2.44885 8.20804C2.44885 10.837 4.78035 13.039 7.92985 13.4555C8.14335 13.5015 8.43385 13.5965 8.50735 13.7785C8.57335 13.944 8.55035 14.2035 8.52835 14.371C8.52835 14.371 8.45185 14.8335 8.43485 14.932C8.40635 15.0975 8.30335 15.58 9.00235 15.2855C9.70185 14.991 12.7763 13.063 14.1513 11.48H14.1508C15.1013 10.439 15.5563 9.38154 15.5563 8.20804ZM6.43735 9.95304H5.13535C4.94585 9.95304 4.79185 9.79904 4.79185 9.60904V7.00454C4.79185 6.81504 4.94585 6.66104 5.13535 6.66104C5.32485 6.66104 5.47885 6.81504 5.47885 7.00454V9.26504H6.43735C6.62685 9.26504 6.78085 9.41904 6.78085 9.60854C6.78085 9.79854 6.62685 9.95304 6.43735 9.95304ZM7.78385 9.60904C7.78385 9.79854 7.62985 9.95304 7.44035 9.95304C7.25085 9.95304 7.09685 9.79904 7.09685 9.60904V7.00454C7.09685 6.81504 7.25085 6.66104 7.44035 6.66104C7.62985 6.66104 7.78385 6.81504 7.78385 7.00454V9.60904ZM10.9188 9.60904C10.9188 9.75754 10.8249 9.88854 10.6838 9.93504C10.6483 9.94704 10.6113 9.95304 10.5748 9.95304C10.4673 9.95304 10.3648 9.90154 10.3003 9.81554L8.96585 7.99804V9.60904C8.96585 9.79854 8.81185 9.95304 8.62185 9.95304C8.43235 9.95304 8.27785 9.79904 8.27785 9.60904V7.00454C8.27785 6.85654 8.37235 6.72554 8.51285 6.67854C8.54835 6.66654 8.58485 6.66104 8.62185 6.66104C8.72885 6.66104 8.83185 6.71254 8.89635 6.79854L10.2313 8.61604V7.00454C10.2313 6.81504 10.3858 6.66104 10.5753 6.66104C10.7648 6.66104 10.9188 6.81504 10.9188 7.00454V9.60904ZM13.0258 7.96304C13.2153 7.96304 13.3698 8.11704 13.3698 8.30704C13.3698 8.49654 13.2158 8.65054 13.0258 8.65054H12.0673V9.26554H13.0258C13.2153 9.26554 13.3698 9.41954 13.3698 9.60904C13.3698 9.79854 13.2153 9.95304 13.0258 9.95304H11.7238C11.5348 9.95304 11.3803 9.79904 11.3803 9.60904V8.30754C11.3803 8.30704 11.3803 8.30704 11.3803 8.30704V8.30654V7.00604C11.3803 7.00554 11.3803 7.00554 11.3803 7.00504C11.3803 6.81554 11.5343 6.66154 11.7238 6.66154H13.0258C13.2153 6.66154 13.3698 6.81554 13.3698 7.00504C13.3698 7.19454 13.2158 7.34854 13.0258 7.34854H12.0673V7.96354H13.0258V7.96304Z" fill="white"/>
</svg>
