<svg width="19" height="19" viewBox="0 0 19 19" fill="none" xmlns="http://www.w3.org/2000/svg">
<path d="M17.558 7.94539L17.558 7.94539C17.3144 7.81948 17.0148 7.91499 16.8889 8.15865L16.2411 9.41232L16.1869 9.51718L16.1341 9.41161L15.5106 8.16455L15.5106 8.16454C15.4265 7.99629 15.2545 7.89 15.0664 7.89C14.8783 7.89 14.7063 7.99629 14.6222 8.16454L14.6222 8.16455L14.0068 9.39536L13.9531 9.50268L13.8994 9.39536L13.284 8.16455L13.284 8.16454C13.195 7.98649 13.0087 7.87896 12.8094 7.89093C12.8094 7.89093 12.8094 7.89093 12.8094 7.89093L12.7758 7.89301L12.7757 7.89301C12.5546 7.90658 12.3761 8.06302 12.3246 8.26723L12.2082 8.26705C12.1743 8.1308 12.0837 8.00994 11.9487 7.94242L11.9755 7.88875L11.9487 7.94241C11.7034 7.81981 11.405 7.91918 11.2824 8.16451L10.6669 9.39536L10.6133 9.50269L10.5596 9.39536L9.94422 8.16456C9.94422 8.16455 9.94422 8.16455 9.94422 8.16455C9.86005 7.99628 9.68811 7.89 9.49999 7.89C9.31187 7.89 9.13993 7.99628 9.05576 8.16455C9.05576 8.16455 9.05575 8.16455 9.05575 8.16456L8.44037 9.39536L8.38671 9.50269L8.33304 9.39536L7.71766 8.16455C7.71766 8.16455 7.71766 8.16455 7.71766 8.16455C7.59498 7.91924 7.29663 7.81978 7.05133 7.94245L7.05132 7.94245C6.91624 8.00998 6.82568 8.13084 6.79178 8.26706L6.67537 8.26722C6.62394 8.06302 6.44542 7.90654 6.22423 7.89297L6.22421 7.89297L6.19052 7.89089C5.99176 7.87864 5.80499 7.9864 5.71595 8.16451L5.71595 8.16451L5.10053 9.39536L5.04686 9.50269L4.9932 9.39536L4.37784 8.1646C4.19679 7.80339 3.67382 7.79564 3.48939 8.16455L3.48939 8.16455L2.86584 9.41165L2.81305 9.51722L2.75887 9.41236L2.11112 8.15873L2.11112 8.15872C1.98524 7.91505 1.68565 7.81958 1.44195 7.94547L17.558 7.94539ZM17.558 7.94539C17.8017 8.07127 17.8972 8.37088 17.7713 8.61456L17.8246 8.64211L17.7713 8.61457L16.6209 10.8412C16.4344 11.2021 15.917 11.1983 15.7355 10.8353L15.7355 10.8353L15.1201 9.6045L15.0664 9.49717L15.0127 9.6045L14.3973 10.8353L14.3973 10.8353C14.2149 11.2002 13.6917 11.2009 13.5089 10.8353L13.4553 10.8621L13.5089 10.8353L12.4718 8.76096L12.4672 8.75186L12.4599 8.74476C12.3948 8.6815 12.347 8.60029 12.3243 8.50853L12.2079 8.5082C12.1991 8.54254 12.187 8.57619 12.1707 8.6087L12.2244 8.63554L12.1707 8.6087L11.0575 10.8353L11.1111 10.8621L11.0575 10.8353C10.8751 11.2002 10.3519 11.201 10.169 10.8353L9.55365 9.6045L9.49999 9.49716L9.44632 9.6045L8.83094 10.8353C8.64849 11.2002 8.12535 11.2009 7.94251 10.8353L6.82924 8.60876C6.81298 8.5762 6.80084 8.54254 6.79212 8.5082L6.67572 8.50853C6.65302 8.60024 6.6052 8.68142 6.54011 8.7447L6.53281 8.75179L6.52826 8.76089L5.49109 10.8353C5.30865 11.2002 4.7855 11.2009 4.60267 10.8353L3.98725 9.6045L3.93358 9.49716L3.87991 9.6045L3.26453 10.8354C3.26453 10.8354 3.26453 10.8354 3.26453 10.8354C3.08284 11.1987 2.56539 11.2019 2.37909 10.8412L2.37909 10.8412L1.22869 8.61468L1.22869 8.61467M17.558 7.94539L1.22869 8.61467M1.22869 8.61467C1.10278 8.37099 1.19826 8.07139 1.44195 7.94547L1.22869 8.61467Z" fill="#2F80ED" stroke="white" stroke-width="0.12"/>
<path d="M18.1789 5.62627L18.1941 5.66352H18.2344H18.94V7.27344V11.7266V13.3291H18.2812H18.241L18.2257 13.3663C16.8215 16.7935 13.4354 18.94 9.5 18.94C5.56664 18.94 2.3354 16.7952 0.930521 13.3663L0.915258 13.3291H0.875H0.06V11.7266V7.27344V5.66352H0.875H0.915258L0.930521 5.62626C2.33504 2.19822 5.56564 0.06 9.5 0.06C13.4342 0.06 16.7742 2.19805 18.1789 5.62627ZM16.9235 5.66352H17.0232L16.9766 5.57546C15.9816 3.69495 14.3067 2.26567 12.3407 1.55402L12.1448 1.48312L12.273 1.64735C12.3228 1.71114 12.372 1.77652 12.4206 1.84389C13.1173 2.80979 13.6668 4.10692 14.0193 5.61715L14.0301 5.66352H14.0777H16.9235ZM10.0757 1.14962L9.99664 1.12306V1.2065V5.60352V5.66352H10.0566H12.9321H13.0092L12.9903 5.58879C12.7894 4.79541 12.4497 3.81855 11.9677 2.97463C11.4868 2.1326 10.8584 1.41242 10.0757 1.14962ZM9.00336 1.2065V1.12306L8.92426 1.14962C8.26176 1.37206 7.73499 1.93973 7.38498 2.42495C6.80024 3.23559 6.33072 4.32056 6.0097 5.58879L5.99079 5.66352H6.06787H8.94336H9.00336V5.60352V1.2065ZM6.72703 1.64735L6.85517 1.48312L6.6593 1.55402C4.69323 2.26567 3.01838 3.69495 2.02342 5.57546L1.97683 5.66352H2.07646H4.92226H4.96987L4.98069 5.61715C5.33313 4.10692 5.88269 2.80979 6.57939 1.84389C6.62801 1.7765 6.67724 1.71116 6.72703 1.64735ZM2.07646 13.3365H1.97683L2.02342 13.4245C3.01838 15.3051 4.69323 16.7343 6.6593 17.446L6.85516 17.5169L6.72703 17.3527C5.85749 16.2382 5.30362 14.7665 4.98069 13.3829L4.96987 13.3365H4.92226H2.07646ZM8.92426 17.8504L9.00336 17.8769V17.7935V13.3965V13.3365H8.94336H6.06787H5.99079L6.0097 13.4112C6.21052 14.2046 6.55031 15.1815 7.03227 16.0254C7.51315 16.8674 8.14155 17.5876 8.92426 17.8504ZM9.99664 17.7935V17.8769L10.0757 17.8504C10.8569 17.5881 11.4851 16.8666 11.9663 16.0229C12.4486 15.1773 12.7892 14.1983 12.9903 13.4038L13.0092 13.3291H12.9321H10.0566H9.99664V13.3891V17.7935ZM12.273 17.3527L12.1448 17.5169L12.3407 17.446C14.3069 16.7343 15.9817 15.2975 16.9766 13.4171L17.0232 13.3291H16.9235H14.0777H14.0301L14.0193 13.3754C13.6963 14.7595 13.1424 16.2384 12.273 17.3527ZM17.8867 12.3432H17.9467V12.2832V11.7266V7.27344V6.7168V6.6568H17.8867H17.3301H17.3277H17.3249H17.3219H17.3184H17.3147H17.3106H17.3062H17.3014H17.2963H17.2909H17.2852H17.2791H17.2727H17.266H17.259H17.2516H17.244H17.236H17.2277H17.219H17.2101H17.2008H17.1913H17.1814H17.1712H17.1607H17.1499H17.1388H17.1274H17.1157H17.1037H17.0914H17.0788H17.0659H17.0527H17.0392H17.0255H17.0114H16.997H16.9824H16.9674H16.9522H16.9367H16.9209H16.9048H16.8885H16.8719H16.855H16.8378H16.8203H16.8026H16.7846H16.7663H16.7478H16.7289H16.7099H16.6905H16.6709H16.651H16.6309H16.6105H16.5899H16.5689H16.5478H16.5264H16.5047H16.4828H16.4606H16.4382H16.4155H16.3926H16.3694H16.346H16.3223H16.2984H16.2743H16.2499H16.2253H16.2005H16.1754H16.1501H16.1246H16.0988H16.0728H16.0466H16.0201H15.9934H15.9665H15.9394H15.912H15.8845H15.8567H15.8287H15.8005H15.772H15.7434H15.7145H15.6855H15.6562H15.6267H15.597H15.5671H15.537H15.5067H15.4762H15.4455H15.4146H15.3835H15.3522H15.3208H15.2891H15.2572H15.2252H15.1929H15.1605H15.1279H15.0951H15.0621H15.0289H14.9956H14.962H14.9283H14.8944H14.8604H14.8261H14.7917H14.7572H14.7224H14.6875H14.6524H14.6172H14.5818H14.5462H14.5105H14.4746H14.4385H14.4023H14.366H14.3294H14.2928H14.2559H14.219H14.1818H14.1446H14.1071H14.0696H14.0319H13.994H13.956H13.9179H13.8796H13.8412H13.8026H13.764H13.7251H13.6862H13.6471H13.6079H13.5686H13.5291H13.4895H13.4498H13.41H13.37H13.33H13.2898H13.2495H13.209H13.1685H13.1279H13.0871H13.0462H13.0052H12.9641H12.9229H12.8816H12.8402H12.7987H12.7571H12.7154H12.6736H12.6317H12.5897H12.5476H12.5054H12.4632H12.4208H12.3783H12.3358H12.2932H12.2505H12.2077H12.1648H12.1218H12.0788H12.0357H11.9925H11.9492H11.9059H11.8625H11.819H11.7754H11.7318H11.6881H11.6443H11.6005H11.5566H11.5127H11.4687H11.4246H11.3805H11.3363H11.2921H11.2478H11.2034H11.1591H11.1146H11.0701H11.0256H10.981H10.9364H10.8917H10.847H10.8023H10.7575H10.7126H10.6678H10.6229H10.5779H10.533H10.488H10.443H10.3979H10.3528H10.3077H10.2626H10.2175H10.1723H10.1271H10.0819H10.0367H9.99142H9.94616H9.90089H9.85561H9.81032H9.76501H9.7197H9.67439H9.62907H9.58374H9.53842H9.49309H9.44776H9.40243H9.35711H9.31179H9.26648H9.22117H9.17587H9.13059H9.08531H9.04005H8.9948H8.94956H8.90434H8.85914H8.81396H8.7688H8.72366H8.67854H8.63345H8.58838H8.54335H8.49834H8.45336H8.40841H8.36349H8.31861H8.27377H8.22896H8.18419H8.13945H8.09476H8.05011H8.00551H7.96095H7.91643H7.87197H7.82755H7.78318H7.73886H7.6946H7.65039H7.60624H7.56214H7.5181H7.47412H7.43021H7.38635H7.34256H7.29883H7.25517H7.21158H7.16806H7.12461H7.08122H7.03792H6.99468H6.95153H6.90845H6.86545H6.82252H6.77968H6.73693H6.69425H6.65166H6.60916H6.56675H6.52442H6.48219H6.44005H6.398H6.35605H6.31419H6.27243H6.23077H6.18921H6.14775H6.10639H6.06514H6.02399H5.98295H5.94202H5.9012H5.86049H5.81989H5.7794H5.73903H5.69878H5.65864H5.61862H5.57872H5.53895H5.4993H5.45977H5.42037H5.38109H5.34195H5.30293H5.26404H5.22529H5.18667H5.14819H5.10984H5.07163H5.03356H4.99563H4.95784H4.9202H4.8827H4.84535H4.80814H4.77108H4.73418H4.69742H4.66082H4.62437H4.58807H4.55194H4.51596H4.48014H4.44448H4.40898H4.37365H4.33848H4.30348H4.26865H4.23398H4.19949H4.16516H4.13101H4.09704H4.06324H4.02961H3.99617H3.9629H3.92982H3.89692H3.8642H3.83167H3.79932H3.76717H3.7352H3.70342H3.67183H3.64044H3.60924H3.57824H3.54743H3.51682H3.48642H3.45621H3.42621H3.39641H3.36681H3.33743H3.30825H3.27928H3.25052H3.22197H3.19364H3.16552H3.13762H3.10994H3.08247H3.05522H3.0282H3.0014H2.97482H2.94847H2.92235H2.89645H2.87078H2.84535H2.82014H2.79518H2.77044H2.74594H2.72168H2.69766H2.67388H2.65034H2.62705H2.604H2.58119H2.55863H2.53632H2.51426H2.49245H2.4709H2.4496H2.42855H2.40776H2.38723H2.36695H2.34694H2.32719H2.3077H2.28848H2.26953H2.25084H2.23242H2.21427H2.19639H2.17878H2.16145H2.1444H2.12762H2.11112H2.0949H2.07896H2.0633H2.04792H2.03283H2.01803H2.00352H1.98929H1.97535H1.96171H1.94836H1.9353H1.92254H1.91008H1.89791H1.88604H1.87448H1.86322H1.85226H1.84161H1.83126H1.82122H1.81149H1.80207H1.79297H1.78417H1.77569H1.76753H1.75968H1.75216H1.74495H1.73807H1.7315H1.72526H1.71935H1.71376H1.70851H1.70358H1.69898H1.69471H1.69078H1.68718H1.68392H1.681H1.67841H1.67617H1.67427H1.67271H1.67149H1.67062H1.6701C1.66998 6.6568 1.66992 6.6568 1.66992 6.7168V6.6568H1.11328H1.05328V6.7168V7.27344V11.7266V12.2832V12.3432H1.11328H1.66992H1.67245H1.67532H1.67851H1.68203H1.68587H1.69004H1.69454H1.69936H1.7045H1.70996H1.71573H1.72183H1.72824H1.73497H1.74201H1.74937H1.75703H1.76501H1.77329H1.78188H1.79077H1.79997H1.80948H1.81928H1.82939H1.8398H1.8505H1.8615H1.8728H1.88439H1.89627H1.90845H1.92091H1.93367H1.94671H1.96004H1.97365H1.98755H2.00173H2.01619H2.03093H2.04595H2.06125H2.07682H2.09267H2.10879H2.12519H2.14185H2.15879H2.17599H2.19346H2.21119H2.22919H2.24745H2.26598H2.28476H2.3038H2.3231H2.34266H2.36248H2.38254H2.40286H2.42343H2.44425H2.46532H2.48664H2.5082H2.53001H2.55206H2.57436H2.59689H2.61967H2.64268H2.66593H2.68942H2.71314H2.73709H2.76128H2.78569H2.81034H2.83521H2.86031H2.88564H2.91119H2.93696H2.96295H2.98917H3.0156H3.04225H3.06912H3.0962H3.12349H3.151H3.17872H3.20665H3.23479H3.26313H3.29168H3.32043H3.34939H3.37855H3.40791H3.43747H3.46723H3.49719H3.52734H3.55768H3.58822H3.61895H3.64987H3.68098H3.71228H3.74376H3.77543H3.80728H3.83931H3.87153H3.90392H3.9365H3.96925H4.00218H4.03528H4.06855H4.102H4.13562H4.16941H4.20337H4.23749H4.27178H4.30623H4.34085H4.37563H4.41056H4.44566H4.48092H4.51633H4.5519H4.58762H4.62349H4.65952H4.69569H4.73202H4.76849H4.80511H4.84187H4.87878H4.91582H4.95301H4.99034H5.02781H5.06542H5.10316H5.14103H5.17904H5.21718H5.25545H5.29385H5.33238H5.37103H5.40981H5.44872H5.48774H5.52689H5.56616H5.60555H5.64505H5.68467H5.72441H5.76426H5.80422H5.84429H5.88448H5.92477H5.96517H6.00567H6.04628H6.087H6.12781H6.16873H6.20974H6.25085H6.29206H6.33337H6.37477H6.41626H6.45785H6.49952H6.54128H6.58313H6.62507H6.66709H6.7092H6.75139H6.79366H6.83601H6.87844H6.92095H6.96353H7.00619H7.04892H7.09172H7.13459H7.17754H7.22055H7.26362H7.30677H7.34998H7.39325H7.43658H7.47997H7.52343H7.56694H7.6105H7.65413H7.6978H7.74153H7.78531H7.82914H7.87302H7.91695H7.96092H8.00494H8.049H8.0931H8.13725H8.18143H8.22566H8.26991H8.31421H8.35854H8.4029H8.4473H8.49172H8.53618H8.58066H8.62517H8.66971H8.71426H8.75885H8.80345H8.84807H8.89272H8.93738H8.98205H9.02674H9.07145H9.11617H9.1609H9.20563H9.25038H9.29513H9.33989H9.38466H9.42943H9.4742H9.51897H9.56374H9.60851H9.65327H9.69803H9.74279H9.78753H9.83227H9.877H9.92172H9.96643H10.0111H10.0558H10.1005H10.1451H10.1897H10.2343H10.2789H10.3235H10.368H10.4125H10.457H10.5015H10.5459H10.5903H10.6347H10.679H10.7233H10.7676H10.8118H10.856H10.9001H10.9442H10.9883H11.0323H11.0763H11.1202H11.1641H11.208H11.2517H11.2955H11.3392H11.3828H11.4264H11.4699H11.5133H11.5567H11.6001H11.6434H11.6866H11.7297H11.7728H11.8158H11.8588H11.9017H11.9445H11.9872H12.0299H12.0725H12.115H12.1574H12.1998H12.242H12.2842H12.3264H12.3684H12.4103H12.4522H12.494H12.5357H12.5773H12.6188H12.6602H12.7015H12.7427H12.7838H12.8249H12.8658H12.9066H12.9473H12.9879H13.0285H13.0689H13.1092H13.1494H13.1895H13.2294H13.2693H13.309H13.3487H13.3882H13.4276H13.4669H13.506H13.5451H13.584H13.6228H13.6615H13.7H13.7384H13.7767H13.8149H13.8529H13.8908H13.9285H13.9661H14.0036H14.041H14.0782H14.1152H14.1522H14.1889H14.2256H14.2621H14.2984H14.3346H14.3706H14.4065H14.4423H14.4778H14.5133H14.5485H14.5837H14.6186H14.6534H14.688H14.7225H14.7568H14.791H14.8249H14.8587H14.8924H14.9258H14.9591H14.9923H15.0252H15.058H15.0906H15.123H15.1552H15.1873H15.2191H15.2508H15.2823H15.3137H15.3448H15.3757H15.4065H15.437H15.4674H15.4976H15.5275H15.5573H15.5869H15.6163H15.6455H15.6745H15.7032H15.7318H15.7602H15.7883H15.8163H15.844H15.8716H15.8989H15.926H15.9529H15.9795H16.006H16.0322H16.0583H16.0841H16.1096H16.135H16.1601H16.185H16.2097H16.2341H16.2583H16.2823H16.306H16.3296H16.3528H16.3759H16.3987H16.4212H16.4436H16.4656H16.4875H16.5091H16.5304H16.5515H16.5723H16.5929H16.6133H16.6334H16.6532H16.6728H16.6921H16.7112H16.73H16.7486H16.7669H16.7849H16.8027H16.8202H16.8374H16.8543H16.871H16.8875H16.9036H16.9195H16.9351H16.9504H16.9655H16.9802H16.9947H17.0089H17.0229H17.0365H17.0499H17.063H17.0757H17.0882H17.1004H17.1124H17.124H17.1353H17.1463H17.1571H17.1675H17.1777H17.1875H17.197H17.2063H17.2152H17.2238H17.2321H17.2401H17.2478H17.2552H17.2623H17.2691H17.2755H17.2816H17.2875H17.2929H17.2981H17.303H17.3075H17.3117H17.3156H17.3192H17.3224H17.3253H17.3278H17.3301H17.8867Z" fill="#2F80ED" stroke="white" stroke-width="0.12"/>
</svg>
