<svg width="22" height="16" viewBox="0 0 22 16" fill="none" xmlns="http://www.w3.org/2000/svg">
<path d="M10.712 1.28001C14.168 1.28001 16.952 1.56801 18.296 1.80801C19.016 2.00001 19.592 2.48001 19.688 3.10401C19.976 4.64001 20.168 6.27201 20.168 7.95201C20.12 10.016 19.88 11.696 19.688 12.896C19.544 13.808 18.584 14.096 18.296 14.192C16.568 14.528 13.688 14.768 10.808 14.768C7.928 14.768 5 14.576 3.32 14.192C2.6 14 2.024 13.52 1.928 12.896C1.544 11.552 1.4 9.77601 1.4 8.00001C1.4 5.79201 1.592 4.16001 1.784 3.15201C1.928 2.24001 2.936 1.95201 3.176 1.85601C4.76 1.52001 7.688 1.28001 10.712 1.28001ZM10.712 0.320007C7.544 0.320007 4.568 0.560007 2.984 0.896007C1.928 1.13601 1.016 1.85601 0.824002 2.96001C0.632002 4.11201 0.440002 5.84001 0.440002 8.00001C0.440002 10.16 0.632002 11.84 0.872003 13.04C1.064 14.096 1.976 14.864 3.032 15.104C4.712 15.44 7.592 15.68 10.76 15.68C13.928 15.68 16.808 15.44 18.488 15.104C19.544 14.864 20.456 14.144 20.648 13.04C20.84 11.84 21.08 10.112 21.128 7.95201C21.128 5.79201 20.888 4.06401 20.648 2.86401C20.456 1.80801 19.544 1.04001 18.488 0.800007C16.808 0.560007 13.88 0.320007 10.712 0.320007Z" fill="white"/>
<path d="M9.08 5.79197L12.92 7.99997L9.08 10.208V5.79197ZM8.12 4.15997V11.84L14.84 7.99997L8.12 4.15997Z" fill="white"/>
</svg>
